<svg xmlns="http://www.w3.org/2000/svg" viewBox="0 0 792 198.5"><defs><style>.cls-1{fill:#f26522;}.cls-2{fill:#005b9e;}.cls-3{fill:#424243;}</style></defs><title>Asset 1</title><g id="Layer_2" data-name="Layer 2"><g id="MatrixCare_Logo_RGB" data-name="MatrixCare Logo_RGB"><path class="cls-1" d="M784.83,52.7A7.11,7.11,0,1,1,792,45.59,6.94,6.94,0,0,1,784.83,52.7Zm0-12.79a5.45,5.45,0,0,0-5.63,5.68,5.6,5.6,0,1,0,11.2,0A5.45,5.45,0,0,0,784.83,39.91Zm2.3,10.1-2.27-3.47H783.8V50h-1.68V41.21h2.74a2.76,2.76,0,0,1,2.88,2.67,2.48,2.48,0,0,1-1.26,2.2l2.07,3Zm-2.52-7.33h-.81v2.38h.81c.92,0,1.43-.45,1.43-1.2S785.53,42.68,784.61,42.68Z"/><path class="cls-2" d="M346.65,119.86h24.13v-80H346.65Z"/><path class="cls-2" d="M358.71,0A12.71,12.71,0,1,0,371.4,12.7,12.72,12.72,0,0,0,358.71,0Z"/><path class="cls-2" d="M73.84,120.24,97.91,73.67a240.62,240.62,0,0,0,9.9-22h.35c0,7.68.55,14.82,1.11,21.44l4,46.73h24.3L127.78,6H107L80.61,56.82C77.12,63.6,72.16,74,69.05,81.73h-.48C65.46,74,60.48,63.59,57,56.82L30.64,6H9.82L0,119.85H24.3l4-46.74c.55-6.6,1.11-13.74,1.11-21.44h.35a240.62,240.62,0,0,0,9.9,22l24.07,46.57H73.84Z"/><path class="cls-2" d="M309,57.64V39.85H286.53v80H310.3V88.58c0-9.65,3.07-17.54,8.87-22.78,5.06-4.58,12.2-7.1,20.1-7.1H340V38.45c-9.38.17-21.8,2.86-28.33,13.61A24.72,24.72,0,0,0,309,57.64Z"/><path class="cls-1" d="M524.42,3.22c-30.18,0-62.26,20.93-62.26,59.7s32.08,59.68,62.25,59.68c13.69,0,23.91-2.22,31.21-6.78V95.11c-7,3.73-16.23,5.69-27,5.69C505.08,100.8,488,84.87,488,62.92s16.69-38.06,39.7-38.06c10.4,0,20.4,2.57,27.92,7.11V9.52C548,5.51,536.68,3.22,524.42,3.22Z"/><path class="cls-2" d="M213,93V69.16c0-20.24-13.15-31.85-36.07-31.85-8.69,0-18.26,1.77-24.53,4.43v18.1c6.1-2.91,15-4.81,23.07-4.81,12.62,0,14.49,6.32,14.49,10.1v4.28L172.11,71.2c-16.32,1.65-26.87,11.63-26.87,25.44,0,15.43,11.48,25.81,28.55,25.81,9,0,17-3.24,22.16-8.87l1.33-1.46,1.05,1.68c3,5,8.24,7.84,15.43,8.55l8-16.08C216.16,104.62,213,99.87,213,93Zm-22.3-.17c0,8.11-7.73,13.76-14.67,13.76-5.77,0-10.27-4.19-10.27-9.56s3.19-11.43,12.15-12.29l12.81-1.26v9.35Z"/><path class="cls-2" d="M217.28,58.91h14.09V94.22c0,16,12.06,27.11,29.33,27.11a35.89,35.89,0,0,0,13.18-2.24V100.77a32.79,32.79,0,0,1-7.16.75c-7.11,0-11.71-4.37-11.71-11.16V58.89h22.76V39.83H254.65V14.66l-22.73,8.6V39.81H217.28v19.1Z"/><path class="cls-1" d="M630.21,93V69.16c0-20.24-13.15-31.85-36.07-31.85-8.7,0-18.27,1.77-24.54,4.43v18.1c6.1-2.91,15-4.81,23.08-4.81,12.62,0,14.48,6.32,14.48,10.1v4.28L589.35,71.2C573,72.85,562.48,82.83,562.48,96.64c0,15.43,11.48,25.81,28.55,25.81,8.94,0,17-3.24,22.15-8.87l1.34-1.46,1,1.68c3.05,5,8.25,7.84,15.44,8.55l8-16.08C633.39,104.62,630.21,99.87,630.21,93Zm-22.32-.17c0,8.11-7.73,13.76-14.68,13.76-5.78,0-10.27-4.19-10.27-9.56s3.19-11.43,12.15-12.29l12.8-1.26Z"/><polygon class="cls-2" points="461.31 39.85 434.46 39.85 419.29 63.01 404.11 39.85 377.25 39.85 403.48 79.85 377.25 119.86 404.11 119.86 419.29 96.7 434.46 119.86 461.31 119.86 435.08 79.85 461.31 39.85"/><path class="cls-1" d="M721,86.15h54.16c.84-6.63,1.26-15.06-.76-23.34-3-12.32-14.32-25.5-35.63-25.5C714.53,37.31,697,55,697,79.43c0,25.33,19.35,43,47.06,43,10.16,0,17.9-1.58,25.64-5.27V99.48a45.9,45.9,0,0,1-22.53,5.39c-15.59,0-23.61-9.06-25.75-16.81A13.1,13.1,0,0,1,721,86.15Zm-.76-14.24a9,9,0,0,1,.25-1.76c2-9.08,9.41-15.43,18.18-15.43A14.09,14.09,0,0,1,753,68.63a16.94,16.94,0,0,1-.17,3.28Z"/><path class="cls-1" d="M667.76,57.64V39.85H645.28v80h23.78V88.58c0-9.65,3.06-17.54,8.86-22.78,5.06-4.58,12.2-7.1,20.11-7.1h.71V38.45c-9.38.17-21.8,2.86-28.33,13.61A25.61,25.61,0,0,0,667.76,57.64Z"/><path class="cls-3" d="M532.75,163.46l-2.62,11.39a6.09,6.09,0,0,1,2.16-2,7.82,7.82,0,0,1,3.58-.91c4.27,0,6.54,3.29,6.54,7.33,0,2.24-1.15,10.94-9.6,10.94-4.3,0-5-2.21-5.42-3.58l-.74,3.25h-2.84l6.09-26.4Zm2.31,10.88a5.85,5.85,0,0,0-5.22,3.36,14.36,14.36,0,0,0-1.34,5.6c0,3.89,2.58,4.7,4.21,4.7a5.94,5.94,0,0,0,4-1.64c1.72-1.65,2.65-4.74,2.7-7C539.51,175.61,537.23,174.34,535.06,174.34Z"/><path class="cls-3" d="M561.58,172.28l-13.29,22.44c-1.65,2.58-2.4,3.78-5.71,3.78a10,10,0,0,1-2-.16l.59-2.53a8.39,8.39,0,0,0,1.38.11,3.24,3.24,0,0,0,1.84-.49,7,7,0,0,0,1.57-1.9l2.32-3.95-2-17.28h2.88l1.39,14,7.76-14h3.24Z"/><path class="cls-3" d="M607.22,169.93a10.57,10.57,0,0,1-2.44,2.93,18.73,18.73,0,0,1-5.3,2.44l6,14.58h-10l-4.84-13.18h-6.41l-3,13.18h-9.12l8.33-36.75h16.19c.78,0,1.51,0,2.29.05a11.78,11.78,0,0,1,5.84,2c1.61,1.14,4.06,3.6,4.06,8.64A12.75,12.75,0,0,1,607.22,169.93Zm-8.32-8.49c-.93-1.2-2-1.62-4.64-1.62h-6.19l-2.28,10.05h7.7a14.24,14.24,0,0,0,2-.2,4.89,4.89,0,0,0,3.44-2.6,6.15,6.15,0,0,0,.78-3.08A4,4,0,0,0,598.9,161.44Z"/><path class="cls-3" d="M657,171.6a10.51,10.51,0,0,0-1.51-1.89,7.78,7.78,0,0,0-5.06-1.72c-2.24,0-3.44.95-3.44,2.08,0,1.46,1.87,1.93,4.22,2.6a33.86,33.86,0,0,1,3.33,1c2.71,1,5.37,2.29,6.3,5.06a7.3,7.3,0,0,1,.36,2.4,8.52,8.52,0,0,1-2.82,6c-1.71,1.62-5,3.49-10.52,3.49-1.92,0-7.43-.11-11.4-4.69a11.19,11.19,0,0,1-1.67-2.44l6.71-3.33a9.72,9.72,0,0,0,1,1.56,7.55,7.55,0,0,0,5.94,2.44,9.3,9.3,0,0,0,2.6-.42,2.67,2.67,0,0,0,1.46-1,1.83,1.83,0,0,0,.31-1,1.55,1.55,0,0,0-.31-.93c-.62-.89-1.77-1.2-3.64-1.77-5.31-1.67-7.59-2.45-9.21-5a7.24,7.24,0,0,1-1-3.55,7,7,0,0,1,1.19-3.84c1.47-2.29,4.69-4.64,10.72-4.64,6.2,0,9.28,2.29,11.05,4.32a13.9,13.9,0,0,1,1.51,2.25Z"/><path class="cls-3" d="M701.88,189.86h-8.54l6.55-28.42-13.74,28.42h-7.7l-1-28.83-6.3,28.83h-8.59l8.23-36.75h13.58l.63,24.1,11.4-24.1h13.79Z"/><path class="cls-3" d="M760.85,189.86h-8l.38-1.88c-.42.31-.83.58-1.25.89a10.7,10.7,0,0,1-5.94,1.71,8.58,8.58,0,0,1-5.77-2c-1.72-1.4-3.8-4-3.8-9.28a20.22,20.22,0,0,1,3-10.51c3.64-5.73,8.7-6.62,11.23-6.62a9.91,9.91,0,0,1,5.84,1.78,8.07,8.07,0,0,1,1.72,1.88l2.87-12.7h8.07ZM756,171.53a4.34,4.34,0,0,0-4.42-3.06,5.41,5.41,0,0,0-2.81,1c-3,2-4.27,6.3-4.27,9.68a6.26,6.26,0,0,0,.89,3.59A3.82,3.82,0,0,0,749,184.5a6.19,6.19,0,0,0,5.26-3.07,15.61,15.61,0,0,0,2.13-7.65A7.48,7.48,0,0,0,756,171.53Z"/><path class="cls-3" d="M635.2,177.9c.11-1.14.22-2.34.22-3.55a14.82,14.82,0,0,0-.53-4.15,10.59,10.59,0,0,0-2-3.86c-3.23-4-8.17-4.22-9.83-4.22a15.57,15.57,0,0,0-8,2.13,16.39,16.39,0,0,0-6.82,9.84,14.3,14.3,0,0,0-.42,3.64c0,5.19,2.51,9.88,7.3,11.87a15.48,15.48,0,0,0,5.77,1c6.61,0,9.9-3.06,11.51-5.15.47-.61.89-1.26,1.33-1.93l-6.24-3.09a13.54,13.54,0,0,1-1.32,1.89,7.06,7.06,0,0,1-5,2.09,5.77,5.77,0,0,1-3-.73c-2.87-1.56-2.46-5.11-2.4-5.84H635.2Zm-16-8.65a5.77,5.77,0,0,1,4-1.51A5,5,0,0,1,628,170.8a7.15,7.15,0,0,1,.27,2h-11.5A8.89,8.89,0,0,1,619.16,169.25Z"/><path class="cls-3" d="M734.6,177.9c.11-1.14.22-2.34.22-3.55a14.82,14.82,0,0,0-.53-4.15,10.57,10.57,0,0,0-2-3.86c-3.24-4-8.17-4.22-9.84-4.22a15.6,15.6,0,0,0-8,2.13,16.35,16.35,0,0,0-6.82,9.84,14.3,14.3,0,0,0-.42,3.64c0,5.19,2.51,9.88,7.3,11.87a15.48,15.48,0,0,0,5.77,1c6.61,0,9.9-3.06,11.51-5.15.47-.61.89-1.26,1.33-1.93l-6.24-3.09a12.8,12.8,0,0,1-1.33,1.89,7,7,0,0,1-5,2.09,5.77,5.77,0,0,1-3-.73c-2.87-1.56-2.46-5.11-2.4-5.84H734.6Zm-16-8.65a5.77,5.77,0,0,1,4-1.51,5,5,0,0,1,4.84,3.06,7.15,7.15,0,0,1,.27,2h-11.5A9.2,9.2,0,0,1,718.56,169.25Z"/></g></g></svg>